<svg width="32" height="32" viewBox="0 0 32 32" fill="none" xmlns="http://www.w3.org/2000/svg">
<path d="M29.35 0.83374H6.21879C5.88727 0.83374 5.56933 0.965436 5.33491 1.19986C5.10049 1.43428 4.96879 1.75222 4.96879 2.08374C4.96879 2.41526 5.10049 2.7332 5.33491 2.96762C5.56933 3.20204 5.88727 3.33374 6.21879 3.33374H26.8988L1.25004 28.9837C1.12605 29.0979 1.02642 29.2359 0.957127 29.3895C0.887835 29.5431 0.850316 29.7091 0.846826 29.8776C0.843335 30.0461 0.873945 30.2135 0.936816 30.3698C0.999686 30.5262 1.09352 30.6682 1.21267 30.7874C1.33183 30.9065 1.47385 31.0003 1.63019 31.0632C1.78653 31.1261 1.95398 31.1567 2.12245 31.1532C2.29092 31.1497 2.45695 31.1122 2.61056 31.0429C2.76417 30.9736 2.90217 30.874 3.01629 30.75L28.6663 5.09999V25.7812C28.6663 26.1128 28.798 26.4307 29.0324 26.6651C29.2668 26.8995 29.5848 27.0312 29.9163 27.0312C30.2478 27.0312 30.5658 26.8995 30.8002 26.6651C31.0346 26.4307 31.1663 26.1128 31.1663 25.7812V2.65124C31.1656 2.16963 30.9741 1.70791 30.6337 1.36724C30.2932 1.02658 29.8317 0.834732 29.35 0.83374Z" fill="#333333"/>
</svg>
