<svg width="13" height="14" viewBox="0 0 13 14" fill="none" xmlns="http://www.w3.org/2000/svg">
<path d="M6.5 0.625C7.99184 0.625 9.42258 1.21763 10.4775 2.27252C11.5324 3.32742 12.125 4.75816 12.125 6.25C12.125 8.57875 10.35 11.0187 6.875 13.625C6.76682 13.7061 6.63523 13.75 6.5 13.75C6.36477 13.75 6.23318 13.7061 6.125 13.625C2.65 11.0187 0.875 8.57875 0.875 6.25C0.875 4.75816 1.46763 3.32742 2.52252 2.27252C3.57742 1.21763 5.00816 0.625 6.5 0.625ZM6.5 4.375C6.00272 4.375 5.52581 4.57254 5.17417 4.92417C4.82254 5.27581 4.625 5.75272 4.625 6.25C4.625 6.74728 4.82254 7.22419 5.17417 7.57583C5.52581 7.92746 6.00272 8.125 6.5 8.125C6.99728 8.125 7.47419 7.92746 7.82583 7.57583C8.17746 7.22419 8.375 6.74728 8.375 6.25C8.375 5.75272 8.17746 5.27581 7.82583 4.92417C7.47419 4.57254 6.99728 4.375 6.5 4.375Z" fill="black"/>
</svg>
